<svg width="1608" height="1356" viewBox="0 0 1608 1356" fill="none" xmlns="http://www.w3.org/2000/svg">
<g clip-path="url(#clip0_301_151)" filter="url(#filter0_d_301_151)">
<path d="M1604 0H4V1347.9H1604V0Z" fill="url(#paint0_linear_301_151)"/>
<g opacity="0.21">
<path d="M1513.47 933.652C1347.37 1024.82 1078.06 1024.82 911.965 933.652C745.87 842.482 745.87 694.868 911.965 603.779C1078.06 512.69 1347.37 512.609 1513.47 603.779C1679.56 694.949 1679.56 842.563 1513.47 933.652Z" fill="#F5F5F5"/>
</g>
<g opacity="0.64">
<path d="M1063.08 862.519C1019.5 862.519 984.167 841.103 984.167 814.685C984.167 788.267 1019.5 766.852 1063.08 766.852C1106.67 766.852 1142 788.267 1142 814.685C1142 841.103 1106.67 862.519 1063.08 862.519Z" fill="#E0E0E0"/>
<path d="M918.875 779.96C880.321 779.96 849.066 761.021 849.066 737.657C849.066 714.294 880.321 695.354 918.875 695.354C957.428 695.354 988.683 714.294 988.683 737.657C988.683 761.021 957.428 779.96 918.875 779.96Z" fill="#E0E0E0"/>
</g>
<g opacity="0.31">
<path d="M980.886 194.729L968.533 202.205C968.61 201.635 968.648 201.059 968.649 200.483V196.735C968.649 190.049 964.172 187.355 958.671 190.657C956.286 192.197 954.256 194.273 952.727 196.735C951.82 188.327 945.547 185.207 937.924 189.827C933.581 192.799 929.967 196.805 927.375 201.518C924.783 206.232 923.285 211.52 923.005 216.955V222.567C922.947 224.813 923.376 227.044 924.259 229.09L914.011 235.29C912.393 236.401 911.048 237.898 910.085 239.658C909.123 241.419 908.57 243.393 908.472 245.42C908.472 249.128 910.962 250.627 914.011 248.763L980.886 208.243C982.501 207.131 983.843 205.633 984.803 203.873C985.762 202.112 986.311 200.139 986.405 198.113C986.405 194.365 983.935 192.866 980.886 194.729Z" fill="#EBEBEB"/>
<path d="M1033.69 232.473L1024.37 238.106C1024.43 237.676 1024.46 237.243 1024.46 236.809V233.993C1024.46 228.948 1021.09 226.902 1016.92 229.414C1015.14 230.578 1013.61 232.125 1012.44 233.952C1011.77 227.611 1007.02 225.261 1001.27 228.746C997.988 230.99 995.261 234.015 993.306 237.574C991.35 241.133 990.223 245.126 990.014 249.228V253.463C989.969 255.152 990.292 256.829 990.96 258.366L983.24 263.046C982.027 263.881 981.018 265.004 980.294 266.323C979.57 267.643 979.151 269.123 979.071 270.643C979.071 273.439 981.001 274.574 983.24 273.176L1033.71 242.583C1034.93 241.756 1035.94 240.638 1036.66 239.321C1037.39 238.004 1037.8 236.525 1037.88 235.006C1037.86 232.21 1036.01 231.076 1033.69 232.473Z" fill="#EBEBEB"/>
</g>
<path d="M1534.93 846.621C1534.89 847.806 1529.79 867.275 1517.61 868.221C1505.43 869.167 1498.42 851.03 1490.07 853.809C1481.72 856.588 1476.84 875.56 1464.29 873.214C1451.73 870.868 1454.21 856.702 1440.02 856.885C1431.07 856.995 1420.59 866.146 1414.83 861.931C1406.48 855.818 1413.49 838.868 1431.19 831.088C1448.9 823.308 1444.96 812.289 1446.95 807.597C1448.94 802.905 1455.95 794.507 1471.6 804.442C1487.24 814.376 1534.93 846.621 1534.93 846.621Z" fill="#455A64"/>
<path d="M1513.08 831.84C1512.95 832.052 1512.75 832.209 1512.51 832.282C1512.26 832.355 1512 832.34 1511.76 832.239C1478.85 818.681 1434.17 837.075 1418.4 851.19C1418.19 851.372 1417.91 851.463 1417.62 851.445C1417.33 851.426 1417.06 851.3 1416.85 851.091C1416.76 850.986 1416.68 850.863 1416.63 850.73C1416.58 850.596 1416.55 850.456 1416.56 850.316C1416.56 850.177 1416.59 850.04 1416.65 849.915C1416.71 849.791 1416.8 849.679 1416.9 849.588C1433.02 835.167 1478.79 816.328 1512.53 830.275C1512.8 830.388 1513.01 830.599 1513.13 830.861C1513.25 831.123 1513.26 831.416 1513.16 831.677L1513.08 831.84Z" fill="white"/>
<path d="M1464.08 855.764C1463.98 855.919 1463.85 856.046 1463.69 856.132C1463.53 856.219 1463.34 856.262 1463.15 856.257C1462.87 856.245 1462.59 856.124 1462.38 855.92C1462.18 855.716 1462.06 855.444 1462.05 855.163C1462.04 854.412 1461.97 836.836 1473.31 826.465C1473.41 826.371 1473.53 826.297 1473.66 826.25C1473.8 826.203 1473.94 826.182 1474.08 826.189C1474.22 826.196 1474.37 826.231 1474.5 826.291C1474.63 826.352 1474.75 826.437 1474.85 826.541C1474.95 826.644 1475.04 826.765 1475.09 826.897C1475.15 827.029 1475.17 827.17 1475.17 827.311C1475.17 827.452 1475.14 827.589 1475.09 827.716C1475.03 827.843 1474.94 827.956 1474.84 828.048C1464.17 837.811 1464.23 855.052 1464.23 855.222C1464.23 855.415 1464.18 855.603 1464.08 855.764V855.764Z" fill="white"/>
<path d="M882.416 726.798L888.399 723.84C888.399 723.84 890.329 701.169 888.399 686.035C884.539 657.853 865.799 633.562 849.104 630.705C827.604 627.038 831.425 647.804 843.72 656.78C863.309 671.164 878.556 692.903 882.416 726.798Z" fill="#325F98"/>
<g opacity="0.1">
<path d="M882.416 726.798L888.399 723.84C888.399 723.84 890.329 701.169 888.399 686.035C884.539 657.853 865.799 633.562 849.104 630.705C827.604 627.038 831.425 647.804 843.72 656.78C863.309 671.164 878.556 692.903 882.416 726.798Z" fill="black"/>
</g>
<path d="M884.693 717.762H884.539C884.268 717.708 884.028 717.543 883.873 717.304C883.717 717.064 883.658 716.77 883.709 716.485C887.878 693.328 869.717 650.397 845.418 638.201C845.162 638.074 844.964 637.847 844.868 637.567C844.772 637.288 844.786 636.98 844.906 636.712C845.027 636.443 845.244 636.235 845.51 636.135C845.776 636.034 846.069 636.048 846.325 636.175C871.415 648.736 890.059 692.903 885.774 716.85C885.732 717.115 885.598 717.354 885.399 717.522C885.2 717.69 884.949 717.775 884.693 717.762V717.762Z" fill="white"/>
<path d="M888.399 723.841C888.843 720.477 889.036 715.574 889.094 714.359C889.344 710.089 888.746 705.812 887.338 701.798C885.488 696.493 881.968 692.011 877.359 689.095C874.85 687.575 871.917 686.481 870.296 683.969C869.12 681.654 868.491 679.076 868.462 676.452C867.96 672.218 866.706 667.741 863.463 665.147C860.221 662.554 855.743 662.493 851.883 662.939C846.093 663.587 840.67 664.398 835.266 661.622C830.949 659.215 826.487 657.104 821.911 655.301C816.121 653.275 803.17 650.236 800.449 658.765C800.14 659.943 800.086 661.177 800.289 662.38C800.493 663.582 800.95 664.721 801.626 665.715C802.995 667.691 804.634 669.446 806.49 670.921L815.542 678.823C816.621 679.654 817.555 680.675 818.301 681.841C820.058 685.002 818.803 688.993 819.189 692.62C819.435 694.465 820.058 696.232 821.018 697.799C821.978 699.366 823.25 700.696 824.748 701.696C827.765 703.679 831.313 704.582 834.861 704.269C839.589 703.925 847.309 700.116 850.204 705.971C851.006 707.966 851.476 710.09 851.594 712.252C851.708 714.422 852.374 716.521 853.524 718.33C855.454 720.802 858.677 721.511 861.688 721.835C865.906 721.914 870.094 722.596 874.136 723.861C875.758 724.529 876.78 726.697 877.726 728.136C880.679 727.102 883.921 725.867 888.399 723.841Z" fill="#325F98"/>
<path d="M885.755 722.138C885.901 722.177 886.053 722.177 886.199 722.138C886.438 722.035 886.629 721.836 886.731 721.586C886.832 721.336 886.835 721.054 886.739 720.801C874.58 689.094 835.787 666.383 812.666 658.846C812.543 658.806 812.414 658.792 812.285 658.804C812.157 658.817 812.033 658.857 811.92 658.921C811.806 658.986 811.706 659.073 811.626 659.178C811.545 659.284 811.485 659.405 811.45 659.535C811.377 659.793 811.403 660.07 811.522 660.309C811.64 660.547 811.843 660.727 812.087 660.811C834.842 668.226 873.017 690.512 884.925 721.591C885.007 721.749 885.127 721.883 885.272 721.978C885.417 722.074 885.584 722.129 885.755 722.138Z" fill="white"/>
<path d="M1160.84 665.491C1160.64 669.434 1159.55 673.27 1157.67 676.688C1155.79 680.107 1153.16 683.011 1150.01 685.164C1148.18 686.428 1145.96 686.92 1143.8 686.542C1144.14 686.921 1144.54 687.249 1144.97 687.514L1142.37 685.954L1142.23 685.853L1141.85 685.589C1141.67 685.457 1141.51 685.308 1141.36 685.144L1141.08 684.84C1141.08 684.738 1140.9 684.637 1140.82 684.516C1140.46 683.988 1140.17 683.416 1139.94 682.814L1139.74 682.267C1139.74 682.172 1139.74 682.077 1139.74 681.983C1139.7 681.824 1139.66 681.661 1139.63 681.497C1139.43 680.566 1139.33 679.615 1139.34 678.66C1139.54 674.724 1140.63 670.892 1142.5 667.478C1144.38 664.063 1147 661.162 1150.15 659.008C1151.6 658.045 1153.27 657.506 1154.99 657.448H1155.67L1156.28 657.57L1156.65 657.671H1156.88C1157.04 657.714 1157.19 657.775 1157.33 657.853L1157.73 658.076L1159.99 659.434C1159.62 659.238 1159.23 659.095 1158.83 659.008C1160.28 660.811 1161 663.138 1160.84 665.491V665.491ZM1143.02 686.278H1142.83H1143.02Z" fill="#325F98"/>
<path d="M1385.51 796.208L1370.24 824.046L1367.66 822.465L1144.97 687.514C1144.54 687.248 1144.14 686.921 1143.8 686.541C1142.4 684.752 1141.71 682.467 1141.87 680.159C1142.08 676.218 1143.16 672.385 1145.04 668.967C1146.93 665.55 1149.55 662.645 1152.69 660.487C1154.15 659.536 1155.82 659.005 1157.54 658.947C1158 658.94 1158.46 658.994 1158.91 659.109C1159.31 659.196 1159.7 659.339 1160.07 659.535L1160.26 659.636L1385.51 796.208Z" fill="#EBEBEB"/>
<path d="M1377.85 796.999C1383.83 793.372 1388.68 796.31 1388.68 803.543C1388.47 807.485 1387.39 811.321 1385.51 814.74C1383.62 818.158 1381 821.062 1377.85 823.215C1371.88 826.842 1367.04 823.904 1367.04 816.651C1367.24 812.714 1368.33 808.883 1370.21 805.468C1372.08 802.054 1374.7 799.152 1377.85 796.999V796.999Z" fill="#325F98"/>
<path d="M1401.1 813.876C1401.03 813.755 1400.94 813.646 1400.83 813.552L1387.03 797.607L1386.92 797.486L1386.67 797.202L1386.53 797.04C1384.6 795.014 1381.44 794.892 1377.89 797.04C1374.74 799.193 1372.12 802.095 1370.24 805.51C1368.37 808.924 1367.28 812.755 1367.08 816.692C1367.08 820.906 1368.72 823.641 1371.25 824.513H1371.4C1371.66 824.593 1371.93 824.654 1372.19 824.695H1372.37L1392.36 829.274C1393.58 829.487 1394.83 829.205 1395.85 828.484C1397.66 827.256 1399.16 825.6 1400.23 823.65C1401.31 821.7 1401.93 819.51 1402.05 817.259C1402.11 816.051 1401.78 814.856 1401.1 813.876V813.876Z" fill="#E0E0E0"/>
<path d="M1224.22 710.468L1223.85 710.246C1223.44 710.098 1222.99 710.056 1222.55 710.123C1222.12 710.19 1221.7 710.364 1221.34 710.631C1220.22 711.394 1219.29 712.425 1218.62 713.64C1217.95 714.855 1217.56 716.218 1217.48 717.62C1217.45 718.071 1217.51 718.525 1217.67 718.946C1217.83 719.367 1218.07 719.745 1218.39 720.051V720.051L1218.87 720.335L1383.25 819.954L1394.06 813.389L1224.22 710.468Z" fill="#455A64"/>
<path d="M1368.01 810.674L1383.27 819.933L1394.08 813.369L1373.41 800.828C1370.97 803.679 1369.13 807.033 1368.01 810.674Z" fill="#37474F"/>
<path d="M1406.55 821.432L1394.06 806.906L1393.73 806.521C1392.34 805.062 1390.1 804.941 1387.56 806.521C1385.32 808.033 1383.45 810.081 1382.11 812.497C1380.76 814.912 1379.99 817.627 1379.84 820.419C1379.84 823.377 1380.97 825.302 1382.75 825.93H1382.87L1383.37 826.052L1401.78 830.306C1402.45 830.395 1403.13 830.237 1403.71 829.86C1404.72 829.163 1405.56 828.226 1406.17 827.125C1406.77 826.023 1407.12 824.788 1407.18 823.519C1407.24 822.763 1407.01 822.012 1406.55 821.432V821.432Z" fill="#325F98"/>
<path opacity="0.1" d="M1406.55 821.432L1394.06 806.906L1393.73 806.521C1392.34 805.062 1390.1 804.941 1387.56 806.521C1385.32 808.033 1383.45 810.081 1382.11 812.497C1380.76 814.912 1379.99 817.627 1379.84 820.419C1379.84 823.377 1380.97 825.302 1382.75 825.93H1382.87L1383.37 826.052L1401.78 830.306C1402.45 830.395 1403.13 830.237 1403.71 829.86C1404.72 829.163 1405.56 828.226 1406.17 827.125C1406.77 826.023 1407.12 824.788 1407.18 823.519C1407.24 822.763 1407.01 822.012 1406.55 821.432V821.432Z" fill="black"/>
<path d="M1407.24 823.519C1407.18 824.788 1406.83 826.023 1406.23 827.125C1405.62 828.226 1404.78 829.163 1403.77 829.86C1403.19 830.243 1402.51 830.395 1401.84 830.286V830.286L1392.57 828.158C1391.11 827.834 1390.14 826.396 1390.14 824.106C1390.24 822.078 1390.8 820.103 1391.77 818.343C1392.73 816.583 1394.08 815.087 1395.7 813.976C1396.33 813.445 1397.12 813.156 1397.93 813.156C1398.74 813.156 1399.53 813.445 1400.16 813.976L1400.41 814.26L1406.62 821.432C1406.86 821.719 1407.03 822.051 1407.14 822.41C1407.24 822.768 1407.28 823.145 1407.24 823.519V823.519Z" fill="#325F98"/>
<path opacity="0.1" d="M1403.71 821.412C1405.64 820.257 1407.18 821.189 1407.18 823.438C1407.12 824.707 1406.77 825.942 1406.17 827.044C1405.56 828.145 1404.72 829.082 1403.71 829.779C1401.78 830.934 1400.24 829.982 1400.24 827.652C1400.32 826.401 1400.67 825.186 1401.27 824.103C1401.88 823.02 1402.71 822.099 1403.71 821.412V821.412Z" fill="black"/>
<path d="M1183.36 685.65C1182.93 685.437 1182.44 685.351 1181.96 685.401C1181.49 685.45 1181.03 685.635 1180.64 685.934C1179.52 686.692 1178.59 687.717 1177.92 688.924C1177.25 690.131 1176.86 691.488 1176.78 692.883C1176.73 693.381 1176.8 693.885 1177 694.342C1177.2 694.798 1177.51 695.19 1177.9 695.476V695.476L1218.43 719.991C1218.11 719.684 1217.87 719.306 1217.71 718.885C1217.55 718.464 1217.49 718.01 1217.52 717.559C1217.6 716.158 1217.98 714.794 1218.66 713.579C1219.33 712.365 1220.26 711.333 1221.38 710.57C1221.74 710.303 1222.16 710.129 1222.59 710.062C1223.03 709.995 1223.47 710.037 1223.89 710.185L1183.36 685.65Z" fill="#FAFAFA"/>
<path d="M1184.48 688.244C1184.4 689.641 1184.01 691.001 1183.34 692.211C1182.67 693.422 1181.74 694.45 1180.62 695.213C1180.26 695.565 1179.79 695.786 1179.3 695.843C1178.81 695.9 1178.31 695.791 1177.88 695.532C1177.45 695.272 1177.11 694.875 1176.91 694.399C1176.71 693.923 1176.66 693.392 1176.76 692.883C1176.84 691.488 1177.23 690.132 1177.9 688.924C1178.57 687.717 1179.5 686.692 1180.62 685.934C1180.99 685.585 1181.45 685.366 1181.94 685.309C1182.43 685.252 1182.92 685.359 1183.35 685.616C1183.78 685.872 1184.12 686.265 1184.32 686.737C1184.53 687.209 1184.58 687.736 1184.48 688.244V688.244Z" fill="#F5F5F5"/>
<path d="M1175.97 671.164H1175.83L1175.68 671.063L1159.72 661.399L1159.33 661.176C1158.25 660.734 1157.08 660.582 1155.93 660.734C1154.78 660.886 1153.68 661.338 1152.73 662.047C1149.91 663.992 1147.57 666.607 1145.89 669.68C1144.22 672.753 1143.25 676.197 1143.08 679.734C1142.95 681.011 1143.15 682.3 1143.66 683.468C1144.16 684.637 1144.96 685.642 1145.96 686.38V686.38L1162.11 696.165H1162.21C1163.31 696.648 1164.5 696.829 1165.68 696.69C1166.87 696.552 1168 696.099 1168.96 695.375C1171.78 693.424 1174.12 690.805 1175.8 687.729C1177.48 684.653 1178.44 681.207 1178.61 677.668C1178.73 676.437 1178.55 675.196 1178.09 674.058C1177.63 672.921 1176.9 671.925 1175.97 671.164V671.164Z" fill="#325F98"/>
<path opacity="0.05" d="M1175.97 671.164H1175.83L1175.68 671.063L1159.72 661.399L1159.33 661.176C1158.25 660.734 1157.08 660.582 1155.93 660.734C1154.78 660.886 1153.68 661.338 1152.73 662.047C1149.91 663.992 1147.57 666.607 1145.89 669.68C1144.22 672.753 1143.25 676.197 1143.08 679.734C1142.95 681.011 1143.15 682.3 1143.66 683.468C1144.16 684.637 1144.96 685.642 1145.96 686.38V686.38L1162.11 696.165H1162.21C1163.31 696.648 1164.5 696.829 1165.68 696.69C1166.87 696.552 1168 696.099 1168.96 695.375C1171.78 693.424 1174.12 690.805 1175.8 687.729C1177.48 684.653 1178.44 681.207 1178.61 677.668C1178.73 676.437 1178.55 675.196 1178.09 674.058C1177.63 672.921 1176.9 671.925 1175.97 671.164V671.164Z" fill="black"/>
<path opacity="0.1" d="M1168.85 671.63C1174.21 668.368 1178.5 671.022 1178.5 677.526C1178.32 681.065 1177.36 684.511 1175.68 687.587C1174.01 690.662 1171.67 693.282 1168.85 695.233C1163.46 698.495 1159.1 695.841 1159.1 689.337C1159.29 685.789 1160.26 682.336 1161.96 679.26C1163.65 676.183 1166.01 673.569 1168.85 671.63V671.63Z" fill="black"/>
<path d="M1411.66 827.531L1405.06 823.358C1404.86 823.242 1404.63 823.191 1404.4 823.209C1404.17 823.227 1403.95 823.313 1403.77 823.459C1403.24 823.808 1402.8 824.284 1402.49 824.849C1402.18 825.413 1402 826.048 1401.97 826.701C1401.95 826.933 1401.99 827.166 1402.08 827.379C1402.18 827.592 1402.32 827.776 1402.49 827.916L1409.08 832.09C1409.46 832.301 1409.88 832.412 1410.31 832.414C1410.98 832.414 1411.62 832.134 1412.1 831.637C1412.57 831.139 1412.84 830.464 1412.84 829.76C1412.84 829.314 1412.73 828.876 1412.52 828.486C1412.32 828.096 1412.02 827.768 1411.66 827.531Z" fill="#455A64"/>
<path d="M1412.05 827.834L1411.7 827.531C1411.51 827.469 1411.3 827.456 1411.1 827.491C1410.9 827.526 1410.71 827.609 1410.54 827.733C1410.02 828.084 1409.59 828.562 1409.28 829.126C1408.97 829.69 1408.79 830.325 1408.77 830.975C1408.74 831.203 1408.78 831.433 1408.87 831.642C1408.95 831.852 1409.09 832.034 1409.27 832.17H1409.4H1409.54C1409.8 832.278 1410.07 832.326 1410.35 832.312C1411.02 832.312 1411.66 832.032 1412.14 831.535C1412.61 831.037 1412.88 830.362 1412.88 829.658C1412.84 828.96 1412.54 828.306 1412.05 827.834V827.834Z" fill="#263238"/>
<path d="M1539.45 846.028L1546.18 841.976C1547.3 841.211 1548.24 840.18 1548.91 838.965C1549.58 837.751 1549.97 836.388 1550.04 834.986V311.123C1549.97 309.722 1549.58 308.358 1548.91 307.143C1548.24 305.929 1547.3 304.897 1546.18 304.134L1236.61 116.506C1235.42 115.864 1234.09 115.529 1232.75 115.529C1231.41 115.529 1230.09 115.864 1228.89 116.506L1222.15 120.558C1221.03 121.323 1220.1 122.354 1219.43 123.569C1218.76 124.783 1218.37 126.146 1218.29 127.548V651.41C1218.37 652.813 1218.75 654.177 1219.43 655.392C1220.1 656.607 1221.03 657.638 1222.15 658.4L1531.77 846.028C1532.95 846.666 1534.27 846.999 1535.61 846.999C1536.94 846.999 1538.26 846.666 1539.45 846.028V846.028Z" fill="#325F98"/>
<path opacity="0.4" d="M1218.43 126.92C1218.68 124.894 1220.36 124.063 1222.29 125.238L1531.77 312.866C1532.89 313.614 1533.83 314.644 1534.49 315.864L1548.92 307.132C1548.27 305.912 1547.33 304.882 1546.2 304.134L1236.61 116.506C1235.42 115.861 1234.09 115.524 1232.75 115.524C1231.41 115.524 1230.08 115.861 1228.89 116.506L1222.14 120.558C1221.12 121.278 1220.26 122.218 1219.62 123.316C1218.98 124.413 1218.58 125.642 1218.43 126.92V126.92Z" fill="white"/>
<path opacity="0.15" d="M1532.44 846.352C1532.52 846.368 1532.6 846.368 1532.67 846.352L1533.06 846.494H1533.21C1533.44 846.494 1533.68 846.615 1533.93 846.676C1535.46 846.98 1537.04 846.847 1538.5 846.291C1538.79 846.176 1539.08 846.041 1539.35 845.886L1546.11 841.834C1547.22 841.066 1548.15 840.033 1548.82 838.82C1549.5 837.606 1549.89 836.245 1549.97 834.844V311.123C1549.92 309.696 1549.54 308.302 1548.85 307.071L1534.41 315.803C1535.12 317.025 1535.52 318.423 1535.55 319.855V843.718C1535.59 844.479 1535.38 845.231 1534.95 845.845C1534.71 846.16 1534.39 846.394 1534.03 846.516C1533.66 846.639 1533.27 846.645 1532.9 846.534C1532.74 846.49 1532.59 846.428 1532.44 846.352V846.352Z" fill="black"/>
<path d="M1315.05 212.964L1315.61 212.6L1321.99 208.75C1324.32 207.391 1326.84 206.452 1329.46 205.975C1330.56 205.711 1331.55 205.407 1332.42 205.103C1333.38 204.772 1334.32 204.373 1335.23 203.908L1334.77 203.28L1341.95 198.884C1342.56 198.529 1343.21 198.263 1343.88 198.093C1346.6 197.384 1350.67 199.046 1354.73 198.559C1356.2 198.408 1357.63 197.918 1358.9 197.123C1360.18 196.328 1361.27 195.248 1362.1 193.96C1364.57 190.476 1366.06 184.377 1368.24 179.312L1366.31 176.375C1366.5 176.248 1366.7 176.133 1366.9 176.03L1373.52 171.978C1374.64 171.288 1375.91 170.924 1377.21 170.925C1379.68 171.062 1382.08 171.879 1384.16 173.295C1400 182.919 1400.54 205.711 1406.26 220.744C1411.97 235.777 1420.06 240.457 1424.46 246.92C1428.86 253.383 1429.17 258.164 1438.91 272.265C1448.66 286.366 1449.05 289.81 1449.05 292.525V313.535L1441.83 317.911L1312.09 239.242L1315.05 212.964ZM1434.01 294.004C1435.69 294.997 1437.08 293.64 1437.08 290.905C1437.1 289.597 1436.83 288.302 1436.3 287.119C1435.76 285.936 1434.98 284.896 1434.01 284.077C1432.33 283.064 1430.96 284.462 1430.96 287.197C1430.95 288.494 1431.21 289.777 1431.74 290.949C1432.27 292.122 1433.05 293.153 1434.01 293.964V294.004ZM1377.02 235.027C1377.84 235.654 1378.78 236.071 1379.78 236.248C1380.78 236.424 1381.8 236.354 1382.77 236.044C1383.74 235.733 1384.62 235.191 1385.36 234.459C1386.09 233.727 1386.65 232.825 1387 231.826C1392.03 232.839 1395.78 227.774 1395.78 218.982C1395.78 208.649 1390.59 197.162 1384.2 193.272C1383.38 192.646 1382.43 192.229 1381.43 192.054C1380.43 191.879 1379.41 191.95 1378.44 192.263C1377.47 192.575 1376.59 193.12 1375.85 193.855C1375.12 194.589 1374.56 195.492 1374.22 196.493C1369.18 195.439 1365.46 200.545 1365.46 209.318C1365.46 219.61 1370.61 231.097 1377.02 234.987V235.027ZM1333.92 233.326C1335.62 234.359 1336.99 232.981 1336.99 230.246C1337.02 228.936 1336.76 227.636 1336.23 226.45C1335.69 225.265 1334.9 224.227 1333.92 223.418C1332.22 222.385 1330.85 223.763 1330.85 226.498C1330.83 227.801 1331.09 229.093 1331.63 230.27C1332.16 231.448 1332.94 232.48 1333.92 233.285V233.326Z" fill="#455A64"/>
<path opacity="0.5" d="M1434.59 297.711L1448.54 289.263C1448.86 290.317 1449.02 291.418 1449.01 292.525V313.534L1441.79 317.91L1434.59 313.534V297.711Z" fill="#37474F"/>
<path opacity="0.5" d="M1420.25 271.495L1413.03 254.01L1424.5 246.96C1427.85 251.843 1428.84 255.793 1433.35 263.553L1420.25 271.495Z" fill="#37474F"/>
<path opacity="0.5" d="M1391.4 236.547L1390.47 231.441C1393.65 230.043 1395.78 225.525 1395.78 218.941C1395.78 210.168 1392.03 200.585 1387 195.5L1396.99 189.422C1401.24 199.552 1402.78 211.708 1406.3 220.764C1407.03 222.79 1407.82 224.472 1408.61 226.092L1391.4 236.547Z" fill="#37474F"/>
<path d="M1315.05 212.964L1315.61 212.599C1317.73 211.564 1319.97 210.802 1322.26 210.33C1326.04 209.634 1329.55 207.853 1332.42 205.184C1333.14 204.496 1333.93 203.885 1334.77 203.361C1335.37 202.987 1336.02 202.714 1336.7 202.55C1341.06 201.436 1349.01 206.44 1354.73 198.66C1354.79 198.588 1354.85 198.506 1354.9 198.417C1358.9 192.785 1360.36 180.183 1366.35 176.476C1366.54 176.349 1366.74 176.234 1366.94 176.131C1369.41 174.916 1372.62 175.139 1377.02 177.772C1392.86 187.396 1393.4 210.188 1399.12 225.221C1404.83 240.254 1412.9 244.934 1417.3 251.397C1421.7 257.86 1421.99 262.641 1431.75 276.742C1441.52 290.843 1441.87 294.308 1441.87 297.002V318.032L1312.13 239.363V218.252C1312.03 217.162 1312.26 216.067 1312.78 215.119C1313.31 214.171 1314.1 213.418 1315.05 212.964V212.964ZM1426.87 298.38C1428.57 299.413 1429.94 298.036 1429.94 295.28C1429.96 293.974 1429.7 292.68 1429.16 291.499C1428.63 290.318 1427.85 289.282 1426.87 288.473C1425.17 287.44 1423.82 288.838 1423.82 291.573C1423.79 292.877 1424.06 294.171 1424.59 295.351C1425.11 296.532 1425.9 297.569 1426.87 298.38V298.38ZM1377.08 235.047C1377.89 235.674 1378.84 236.091 1379.84 236.268C1380.84 236.444 1381.86 236.374 1382.83 236.064C1383.79 235.753 1384.68 235.211 1385.41 234.479C1386.15 233.747 1386.71 232.845 1387.05 231.846C1388.19 229.179 1388.73 226.276 1388.64 223.357C1388.64 213.045 1383.46 201.537 1377.06 197.668C1376.19 197.123 1375.25 196.733 1374.26 196.513C1369.22 195.459 1365.5 200.565 1365.5 209.337C1365.46 219.609 1370.61 231.097 1377.02 234.987L1377.08 235.047ZM1326.72 237.6C1328.42 238.633 1329.79 237.256 1329.79 234.541C1329.82 233.234 1329.56 231.938 1329.02 230.756C1328.49 229.575 1327.7 228.54 1326.72 227.734C1325.04 226.7 1323.67 228.078 1323.67 230.813C1323.65 232.114 1323.91 233.404 1324.44 234.581C1324.97 235.759 1325.75 236.792 1326.72 237.6V237.6Z" fill="#37474F"/>
<path d="M1365.46 209.236C1365.46 219.569 1370.61 231.056 1377.04 234.946C1377.86 235.573 1378.8 235.99 1379.8 236.167C1380.8 236.343 1381.82 236.273 1382.79 235.963C1383.76 235.652 1384.64 235.11 1385.38 234.378C1386.11 233.646 1386.67 232.744 1387.02 231.745C1386.03 231.516 1385.09 231.127 1384.22 230.59C1377.83 226.701 1372.64 215.213 1372.64 204.88C1372.55 201.969 1373.09 199.074 1374.22 196.412C1369.18 195.399 1365.46 200.484 1365.46 209.236Z" fill="#263238"/>
<path d="M1426.87 298.38C1428.57 299.393 1429.94 298.016 1429.94 295.301C1429.96 293.992 1429.7 292.694 1429.16 291.51C1428.63 290.326 1427.85 289.287 1426.87 288.473C1425.19 287.44 1423.82 288.858 1423.82 291.573C1423.8 292.877 1424.06 294.168 1424.59 295.349C1425.12 296.529 1425.9 297.566 1426.87 298.38" fill="#263238"/>
<path d="M1326.72 237.6C1328.42 238.613 1329.79 237.256 1329.79 234.521C1329.81 233.212 1329.55 231.914 1329.02 230.73C1328.49 229.546 1327.7 228.507 1326.72 227.693C1325.04 226.68 1323.67 228.078 1323.67 230.813C1323.65 232.114 1323.92 233.402 1324.45 234.579C1324.97 235.755 1325.75 236.789 1326.72 237.6Z" fill="#263238"/>
<path d="M1511.67 361.875L1242.28 198.599C1241.57 198.22 1240.78 198.022 1239.98 198.022C1239.18 198.022 1238.39 198.22 1237.67 198.599L1235.07 200.18C1234.4 200.64 1233.84 201.26 1233.44 201.988C1233.04 202.717 1232.81 203.534 1232.77 204.373V635.79C1232.81 636.63 1233.04 637.448 1233.44 638.177C1233.84 638.907 1234.39 639.526 1235.07 639.984L1504.46 803.259C1505.17 803.638 1505.96 803.836 1506.76 803.836C1507.56 803.836 1508.35 803.638 1509.07 803.259L1511.67 801.679C1512.35 801.222 1512.91 800.603 1513.31 799.874C1513.72 799.145 1513.95 798.326 1513.99 797.485V366.069C1513.94 365.228 1513.71 364.41 1513.31 363.682C1512.91 362.953 1512.35 362.334 1511.67 361.875V361.875Z" fill="#F5F5F5"/>
<path d="M1232.85 203.644C1233.14 202.651 1234.02 202.327 1235.07 202.976L1504.46 366.251C1505.15 366.683 1505.72 367.306 1506.1 368.054L1513.31 363.698C1512.92 362.953 1512.36 362.326 1511.67 361.875L1242.28 198.599C1241.57 198.22 1240.78 198.022 1239.98 198.022C1239.18 198.022 1238.39 198.22 1237.67 198.599L1235.07 200.18C1234.49 200.572 1234 201.081 1233.62 201.676C1233.24 202.271 1232.98 202.94 1232.85 203.644V203.644Z" fill="#FAFAFA"/>
<path d="M1505.02 803.523C1505.29 803.627 1505.58 803.709 1505.86 803.766H1506.31C1506.78 803.816 1507.25 803.816 1507.72 803.766C1508.01 803.706 1508.29 803.625 1508.57 803.523L1509.09 803.259L1511.67 801.699C1512.34 801.238 1512.9 800.618 1513.3 799.889C1513.7 799.161 1513.93 798.344 1513.97 797.505V366.069C1513.96 365.231 1513.73 364.413 1513.31 363.698L1506.1 368.054C1506.51 368.78 1506.74 369.601 1506.77 370.445V801.861C1506.77 803.178 1506 803.826 1505.02 803.523Z" fill="#E0E0E0"/>
<path d="M1293.45 259.704L1300.63 255.348C1301.76 254.768 1303 254.485 1304.25 254.524C1305.51 254.563 1306.74 254.922 1307.83 255.571C1316.2 259.44 1319.83 261.203 1324.16 263.107L1327.28 264.424C1328.98 265.133 1332.36 264.526 1331.32 258.346L1320.18 226.882H1320.35L1327.4 222.608C1327.76 222.372 1328.16 222.22 1328.58 222.162C1328.79 222.162 1329.06 222.162 1329.35 222.162C1333.9 222.04 1335.14 191.184 1335.23 190.232L1335.56 190.05L1342.53 185.836C1343.74 185.115 1345.11 184.751 1346.5 184.782C1348.83 184.895 1351.1 185.589 1353.12 186.808C1364.07 192.886 1375.13 210.735 1377.83 226.801C1379.53 236.931 1389.23 252.532 1394.85 258.285C1400.47 264.039 1400.85 268.821 1400.85 268.821L1405.22 294.794L1406.62 303.121C1407.65 309.32 1413.71 315.277 1413.71 315.277L1436.31 332.822C1450.45 345.14 1454.45 357.6 1457.15 372.998V373.119C1457.15 373.666 1457.15 374.031 1456.9 374.173C1456.86 374.198 1456.82 374.211 1456.78 374.211C1456.73 374.211 1456.69 374.198 1456.65 374.173L1453.75 372.451L1298.27 278.323C1297.91 278.061 1297.6 277.725 1297.35 277.336C1297.11 276.946 1296.95 276.511 1296.87 276.053C1296.87 276.053 1296.87 276.053 1296.87 276.053C1295.98 270.441 1293.39 259.845 1293.39 259.845L1293.45 259.704ZM1338.4 212.032C1340.08 221.898 1346.85 232.92 1353.59 236.627C1358.24 239.18 1361.64 237.6 1362.77 233.102C1363.61 233.446 1364.52 233.563 1365.41 233.442C1366.3 233.322 1367.14 232.968 1367.87 232.413C1370.03 230.631 1350.23 194.932 1348.57 195.723C1347.8 196.149 1347.13 196.754 1346.61 197.49C1346.09 198.227 1345.74 199.077 1345.58 199.977C1340.02 198.215 1336.91 203.158 1338.4 212.032Z" fill="#455A64"/>
<path opacity="0.5" d="M1434.59 350.165L1445.92 343.297C1452.48 352.373 1455.13 361.916 1457.07 372.998V373.12C1457.07 373.667 1457.07 374.031 1456.82 374.173C1456.79 374.198 1456.74 374.212 1456.7 374.212C1456.65 374.212 1456.61 374.198 1456.57 374.173V374.173L1447.64 366.758L1434.59 350.165Z" fill="#37474F"/>
<path opacity="0.5" d="M1407.38 305.532L1391.4 315.196L1384.2 271.495L1398.6 262.763C1399.74 264.491 1400.51 266.462 1400.85 268.537L1405.22 294.51L1406.62 302.837C1406.78 303.761 1407.04 304.664 1407.38 305.532V305.532Z" fill="#37474F"/>
<path opacity="0.5" d="M1370.26 205.65C1373.9 212.1 1376.46 219.159 1377.83 226.518C1378.98 231.734 1380.88 236.735 1383.46 241.348L1369.78 249.655L1362.97 233.143C1363.78 233.451 1364.65 233.545 1365.5 233.418C1366.36 233.291 1367.17 232.946 1367.87 232.414C1368.99 231.482 1364.28 221.615 1359.24 212.336L1370.26 205.65Z" fill="#37474F"/>
<path d="M1293.35 259.765H1293.45C1294.58 259.205 1295.82 258.934 1297.07 258.977C1298.32 259.019 1299.54 259.372 1300.63 260.008C1310.9 264.769 1314 266.329 1320.1 268.861C1321.72 269.55 1325.02 269.003 1324.16 263.168C1324.16 263.033 1324.16 262.898 1324.16 262.763L1322.75 254.457L1318.89 231.826C1318.89 231.826 1318 228.26 1320.24 226.923H1320.41C1320.97 226.65 1321.59 226.512 1322.21 226.518C1323.52 226.352 1324.78 225.878 1325.89 225.131C1327 224.384 1327.94 223.383 1328.63 222.203C1329.84 220.322 1330.67 218.208 1331.08 215.985C1331.5 213.762 1331.48 211.474 1331.05 209.256C1329.4 199.552 1331.2 192.745 1335.29 190.212L1335.62 190.009C1338.26 188.53 1341.81 188.774 1345.96 191.063C1356.93 197.141 1367.99 214.99 1370.67 231.056C1372.39 241.186 1382.09 256.807 1387.71 262.54C1393.33 268.274 1393.69 273.075 1393.69 273.075L1397.92 298.907L1399.31 307.214C1400.35 313.413 1406.41 319.37 1406.41 319.37L1428.99 337.158C1438 344.688 1444.51 355.022 1447.58 366.677C1447.58 366.677 1456.05 373.585 1456.57 374.132L1453.68 372.41L1297.75 278.323C1297.75 278.323 1295.98 277.29 1295.57 277.026C1295.17 276.763 1288.89 270.543 1288.89 270.543C1289.24 265.235 1290.75 261.406 1293.35 259.765ZM1338.4 212.032C1340.08 221.899 1346.85 232.92 1353.59 236.628C1358.24 239.18 1361.64 237.6 1362.77 233.102C1363.28 230.578 1363.28 227.969 1362.77 225.444C1361.1 215.557 1354.3 204.556 1347.57 200.869C1346.95 200.513 1346.3 200.215 1345.64 199.977C1340.02 198.215 1336.91 203.158 1338.4 212.032Z" fill="#37474F"/>
<path d="M1338.4 212.032C1340.08 221.898 1346.85 232.92 1353.59 236.627C1358.24 239.18 1361.64 237.6 1362.77 233.102C1362.11 232.872 1361.47 232.588 1360.84 232.251C1354.09 228.544 1347.33 217.522 1345.66 207.635C1345.15 205.11 1345.15 202.502 1345.66 199.977C1340.02 198.214 1336.91 203.158 1338.4 212.032Z" fill="#263238"/>
<path d="M1344.9 200.403C1344.27 200.363 1343.64 200.495 1343.07 200.786C1342.51 201.077 1342.02 201.518 1341.66 202.065C1338.86 206.238 1341.54 216.854 1342.7 220.299C1344.3 225.019 1354.77 236.122 1357.64 236.122C1358.59 235.957 1359.5 235.59 1360.32 235.043C1361.13 234.496 1361.83 233.781 1362.37 232.941C1362.84 230.508 1362.84 227.999 1362.37 225.566C1360.73 215.801 1354.01 204.941 1347.39 201.254C1346.8 200.928 1346.19 200.65 1345.56 200.423H1344.92M1344.92 199.957H1345.64C1346.3 200.195 1346.95 200.494 1347.57 200.849C1354.3 204.536 1361.08 215.537 1362.77 225.424C1363.28 227.949 1363.28 230.558 1362.77 233.083C1362.19 233.995 1361.44 234.772 1360.56 235.364C1359.68 235.957 1358.69 236.353 1357.66 236.527V236.527C1354.53 236.527 1344.01 225.323 1342.34 220.319C1340.66 215.315 1337.01 199.836 1344.96 199.836L1344.92 199.957Z" fill="#263238"/>
<path d="M1456.65 374.193L1297.85 278.363L1295.65 277.086C1295.26 276.843 1288.99 270.583 1288.99 270.583L1447.68 366.737C1447.68 366.737 1457.29 374.557 1456.65 374.193Z" fill="#263238"/>
<path d="M1477.94 441.395V445.184C1477.94 447.21 1476.55 448.081 1474.85 447.048L1264.75 319.694C1263.85 319.08 1263.11 318.255 1262.57 317.283C1262.04 316.312 1261.72 315.222 1261.66 314.102V310.293C1261.66 308.267 1263.05 307.396 1264.75 308.429L1474.85 435.804C1475.75 436.416 1476.49 437.241 1477.03 438.212C1477.57 439.184 1477.88 440.274 1477.94 441.395V441.395Z" fill="#E0E0E0"/>
<path d="M1477.94 464.309V468.098C1477.94 470.124 1476.55 470.995 1474.85 469.962L1264.75 342.587C1263.85 341.975 1263.11 341.15 1262.57 340.178C1262.03 339.207 1261.72 338.116 1261.66 336.995V333.186C1261.66 331.16 1263.05 330.309 1264.75 331.322L1474.85 458.717C1475.75 459.329 1476.49 460.155 1477.03 461.126C1477.57 462.098 1477.88 463.188 1477.94 464.309V464.309Z" fill="#E0E0E0"/>
<path d="M1477.94 487.082V490.85C1477.94 492.876 1476.55 493.747 1474.85 492.714L1264.75 365.38C1263.85 364.767 1263.11 363.941 1262.57 362.97C1262.04 361.999 1261.72 360.909 1261.66 359.788V355.979C1261.66 353.953 1263.05 353.082 1264.75 354.115L1474.85 481.49C1475.75 482.102 1476.49 482.927 1477.03 483.899C1477.57 484.87 1477.88 485.961 1477.94 487.082V487.082Z" fill="#E0E0E0"/>
<path d="M1477.94 537.549V541.338C1477.94 543.364 1476.55 544.235 1474.85 543.202L1264.75 415.888C1263.85 415.276 1263.11 414.45 1262.57 413.479C1262.03 412.508 1261.72 411.417 1261.66 410.296V406.487C1261.66 404.461 1263.05 403.61 1264.75 404.623L1474.85 531.957C1475.75 532.569 1476.49 533.395 1477.03 534.366C1477.57 535.338 1477.88 536.428 1477.94 537.549Z" fill="#E0E0E0"/>
<path d="M1477.94 560.443V564.252C1477.94 566.278 1476.55 567.129 1474.85 566.116L1264.75 438.741C1263.85 438.129 1263.11 437.304 1262.57 436.333C1262.03 435.361 1261.72 434.271 1261.66 433.15V429.341C1261.66 427.315 1263.05 426.444 1264.75 427.477L1474.85 554.851C1475.75 555.465 1476.49 556.29 1477.03 557.261C1477.56 558.233 1477.88 559.322 1477.94 560.443V560.443Z" fill="#E0E0E0"/>
<path d="M1477.94 583.236V587.024C1477.94 589.05 1476.55 589.922 1474.85 588.888L1264.75 461.514C1263.85 460.902 1263.11 460.076 1262.57 459.105C1262.03 458.133 1261.72 457.043 1261.66 455.922V452.113C1261.66 450.087 1263.05 449.236 1264.75 450.249L1474.85 577.644C1475.75 578.256 1476.49 579.081 1477.03 580.053C1477.57 581.024 1477.88 582.115 1477.94 583.236V583.236Z" fill="#E0E0E0"/>
<path d="M1477.94 633.683V637.492C1477.94 639.518 1476.55 640.369 1474.85 639.356L1264.75 511.982C1263.85 511.369 1263.11 510.544 1262.57 509.573C1262.03 508.601 1261.72 507.511 1261.66 506.39V502.581C1261.66 500.555 1263.05 499.684 1264.75 500.717L1474.85 628.092C1475.75 628.705 1476.49 629.53 1477.03 630.502C1477.56 631.473 1477.88 632.563 1477.94 633.683Z" fill="#E0E0E0"/>
<path d="M1477.94 656.597V660.386C1477.94 662.412 1476.55 663.283 1474.85 662.25L1264.75 534.875C1263.85 534.268 1263.11 533.446 1262.57 532.478C1262.03 531.51 1261.72 530.422 1261.66 529.304V525.495C1261.66 523.469 1263.05 522.598 1264.75 523.631L1474.85 651.006C1475.75 651.618 1476.49 652.443 1477.03 653.415C1477.57 654.386 1477.88 655.476 1477.94 656.597V656.597Z" fill="#E0E0E0"/>
<path d="M1477.94 679.369V683.178C1477.94 685.204 1476.55 686.055 1474.85 685.042L1264.75 557.708C1263.85 557.096 1263.11 556.271 1262.57 555.299C1262.03 554.328 1261.72 553.237 1261.66 552.116V548.308C1261.66 546.282 1263.05 545.41 1264.75 546.444L1474.85 673.778C1475.75 674.391 1476.49 675.217 1477.03 676.188C1477.56 677.159 1477.88 678.249 1477.94 679.369Z" fill="#E0E0E0"/>
<path d="M1369.78 682.429L1261.6 616.888V619.076L1369.78 684.617V682.429Z" fill="#E0E0E0"/>
<path d="M1344.61 648.392C1340.12 645.232 1335.1 639.903 1335.91 633.602C1336.39 629.773 1339.36 628.294 1342.72 629.652C1349.3 632.306 1353.45 642.699 1355.75 648.98C1357.68 654.47 1360.32 664.823 1352.47 666.586C1343.26 668.612 1336.14 654.43 1334.06 647.055C1333.77 646.022 1335.37 645.454 1335.83 646.386C1336.64 648.068 1342.07 659.17 1336.1 657.772C1333.98 657.286 1332.76 653.822 1331.99 652.059C1330.64 648.899 1329.96 644.502 1327.84 641.787L1329.4 641.038C1329.31 643.955 1329.4 645.941 1327.47 648.21C1327.33 648.421 1327.11 648.562 1326.86 648.604C1326.62 648.646 1326.37 648.584 1326.16 648.433C1323.11 645.454 1322.9 640.612 1319.54 637.918L1320.91 637.229C1320.91 638.161 1321.32 640.815 1321.38 642.051C1321.38 642.638 1320.62 643.023 1320.18 642.841C1319.74 642.746 1319.34 642.536 1319 642.232C1318.66 641.927 1318.4 641.537 1318.25 641.098L1319.72 640.531C1318.44 647.683 1312.63 640.531 1310.65 637.816C1304.86 629.712 1300.73 621.021 1300.57 610.648C1300.57 609.817 1302.06 609.392 1302.08 610.384C1302.21 618.367 1305.53 625.681 1307.67 633.217C1309.97 641.321 1311.88 649.608 1313.46 657.955L1312.09 658.482C1311.66 652.575 1310.22 646.798 1307.85 641.423C1306.35 636.635 1303.85 632.259 1300.53 628.618L1301.81 628.112C1301.47 630.195 1301.57 632.33 1302.1 634.367C1302.64 636.404 1303.59 638.294 1304.89 639.903C1305.3 640.45 1304.39 641.483 1303.99 640.936C1301.86 638.14 1298.37 637.249 1296.09 634.534C1293.95 631.484 1292.05 628.26 1290.4 624.89L1291.44 624.343C1291.58 631.151 1285.46 620.535 1284.63 619.4L1285.63 618.995C1285.23 620.393 1284.69 621.325 1283.18 621.345C1280.19 621.345 1279.07 616.766 1276.81 616.239C1276.81 616.239 1275.83 617.111 1275.48 617.151C1274.24 617.343 1272.97 617.093 1271.87 616.442C1269.35 614.729 1267.31 612.336 1265.97 609.513C1265.62 608.865 1266.8 608.054 1267.18 608.764C1268.67 611.397 1273.3 618.387 1276.66 614.963C1276.87 614.76 1277.31 614.558 1277.55 614.842C1278.45 616.017 1283.64 622.257 1284.61 618.894C1284.73 618.488 1285.29 618.043 1285.59 618.488C1286.39 619.582 1287.02 620.798 1287.76 621.953C1288.16 622.581 1290.42 626.572 1290.34 624.546C1290.34 624.06 1291.06 623.493 1291.38 623.999C1293.49 627.382 1295.03 631.819 1297.97 634.575C1300.15 636.601 1303 637.371 1304.89 639.822L1303.99 640.855C1302.53 639.131 1301.46 637.086 1300.84 634.872C1300.23 632.657 1300.1 630.327 1300.45 628.051C1300.48 627.912 1300.54 627.783 1300.63 627.675C1300.72 627.567 1300.83 627.484 1300.96 627.434C1301.09 627.383 1301.22 627.367 1301.36 627.386C1301.49 627.406 1301.62 627.46 1301.73 627.545C1305.34 631.029 1307.36 635.932 1309.16 640.632C1311.57 646.12 1313.03 652.012 1313.48 658.036C1313.48 658.664 1312.27 659.373 1312.11 658.563C1310.48 649.556 1308.36 640.654 1305.76 631.9C1303.64 624.85 1300.76 618.063 1300.63 610.567L1302.13 610.303C1302.28 618.065 1304.61 625.609 1308.83 631.981C1309.91 633.744 1311.05 635.507 1312.29 637.168C1312.83 637.918 1317.61 644.482 1318.23 640.673C1318.33 640.126 1319.35 639.356 1319.7 640.106L1321.09 641.402L1319.89 642.172C1319.79 640.531 1319.48 638.991 1319.41 637.33C1319.41 636.702 1320.33 636.297 1320.78 636.662C1324.19 639.397 1324.44 644.239 1327.51 647.217L1326.2 647.44C1327.24 645.607 1327.75 643.495 1327.67 641.362C1327.67 640.653 1328.71 639.964 1329.23 640.612C1331.59 643.57 1332.32 648.291 1333.86 651.735C1334.71 653.619 1337.72 658.644 1336.76 653.295C1336.12 651.078 1335.2 648.96 1334.04 646.994L1335.81 646.326C1337.63 652.768 1342.47 662.534 1349.09 664.56C1357.54 667.214 1356.08 656.212 1354.53 651.31C1352.7 645.597 1349.97 640.243 1346.47 635.466C1345.82 634.515 1345.09 633.632 1344.29 632.832C1342.57 631.212 1342.07 630.806 1339.67 632.245C1337.28 633.683 1337.16 634.473 1337.74 637.188C1338.1 638.536 1338.63 639.825 1339.33 641.017C1340.85 643.465 1342.77 645.617 1345 647.379C1345.31 647.642 1344.86 648.514 1344.52 648.25L1344.61 648.392Z" fill="#455A64"/>
<path d="M1085.26 522.01C1092.25 520.267 1099.95 525.494 1104.44 537.002C1108.94 548.51 1117.95 577.927 1119.88 585.626C1120.73 589.07 1095.8 619.582 1096.72 619.136C1096.99 618.994 1088.6 604.245 1088.6 604.245L1100.7 584.694L1092.98 563.482L1085.26 522.01Z" fill="#B16668"/>
<path d="M1101.43 795.114C1102.38 795.499 1102.63 797.383 1102.77 801.192C1102.88 804.049 1103.46 809.013 1100.28 810.005C1097.09 810.998 1092.44 810.492 1090.39 807.817C1087.93 804.215 1085.3 800.747 1082.5 797.424C1079.35 793.858 1075.96 790.556 1074.68 785.572C1073.53 781.074 1074.49 779.129 1077.4 777.812C1081.44 776.029 1087.75 781.864 1090.91 782.816C1093.6 783.586 1100.49 794.749 1101.43 795.114Z" fill="#263238"/>
<path d="M1101.43 791.63V796.249C1099.78 797.359 1097.87 797.976 1095.91 798.033C1093.95 798.09 1092.01 797.586 1090.3 796.573C1090.1 796.128 1089.14 789.948 1089.14 789.948L1101.43 791.63Z" fill="#B16668"/>
<path d="M1068.66 819.689C1069.43 822.166 1070.07 824.682 1070.59 827.226C1071.15 830.022 1071.92 834.702 1070.98 836.789C1070.03 838.876 1066.42 840.253 1060.77 840.213C1057.12 840.213 1051.43 842.786 1047.53 845.075C1043.61 847.092 1039.18 847.738 1034.89 846.919C1029.87 846.291 1024.66 843.232 1023.85 841.064C1023.04 838.896 1024.08 837.822 1035.91 832.534C1036.03 832.534 1048.38 826.618 1054.11 819.993L1068.66 819.689Z" fill="#263238"/>
<path d="M1068.66 814.686C1068.66 814.686 1068.66 818.109 1068.66 820.075C1068.66 822.04 1066.46 824.957 1060.75 824.755C1056.73 824.593 1053.94 823.458 1054.11 819.994V815.01L1068.66 814.686Z" fill="#B16668"/>
<path d="M1105.78 727.527C1104.83 719.413 1103.02 711.435 1100.39 703.742C1100.39 703.742 1102.88 683.279 1104.25 663.627C1106.82 628.395 1104.75 616.887 1098.15 601.085C1098.15 601.085 1041.85 595.007 1040.14 619.663C1037.99 650.256 1040.83 709.374 1041.6 720.173C1042.38 730.971 1043.34 735.854 1046.97 758.424C1049.75 775.604 1054.03 815.01 1054.03 815.01C1056.3 816.216 1058.81 816.818 1061.35 816.761C1063.89 816.704 1066.37 815.992 1068.58 814.686C1068.58 814.686 1073.18 765.495 1072.7 753.035C1072.36 743.815 1070.87 734.681 1068.28 725.866C1068.28 725.866 1071.77 676.006 1072.77 668.064C1072.77 668.064 1074.55 683.887 1075.32 694.686C1076.09 705.484 1079.18 715.817 1082.11 735.895C1084.7 753.298 1089.51 792.217 1089.51 792.217C1096.97 796.472 1101.43 791.67 1101.43 791.67C1101.43 791.67 1107.78 742.621 1105.78 727.527Z" fill="#325F98"/>
<g opacity="0.35">
<path d="M1105.78 727.527C1104.83 719.413 1103.02 711.435 1100.39 703.742C1100.39 703.742 1102.88 683.279 1104.25 663.627C1106.82 628.395 1104.75 616.887 1098.15 601.085C1098.15 601.085 1041.85 595.007 1040.14 619.663C1037.99 650.256 1040.83 709.374 1041.6 720.173C1042.38 730.971 1043.34 735.854 1046.97 758.424C1049.75 775.604 1054.03 815.01 1054.03 815.01C1056.3 816.216 1058.81 816.818 1061.35 816.761C1063.89 816.704 1066.37 815.992 1068.58 814.686C1068.58 814.686 1073.18 765.495 1072.7 753.035C1072.36 743.815 1070.87 734.681 1068.28 725.866C1068.28 725.866 1071.77 676.006 1072.77 668.064C1072.77 668.064 1074.55 683.887 1075.32 694.686C1076.09 705.484 1079.18 715.817 1082.11 735.895C1084.7 753.298 1089.51 792.217 1089.51 792.217C1096.97 796.472 1101.43 791.67 1101.43 791.67C1101.43 791.67 1107.78 742.621 1105.78 727.527Z" fill="black"/>
</g>
<path d="M1056.48 514.048L1059.13 536.881L1078.25 535.078L1076.07 509.732L1056.48 514.048Z" fill="#B16668"/>
<path d="M1099.25 533.396C1097.15 527.318 1089.99 520.693 1082.64 522.132L1077.23 523.165C1077.08 528.433 1067.58 531.147 1058.2 527.967C1055.38 528.817 1052.78 529.689 1050.48 530.56C1043.75 533.092 1041.04 544.742 1040.83 564.475C1040.62 584.208 1038.69 633.096 1038.69 633.096L1046.66 635.75L1050.33 621.426L1051.81 638.586C1060.76 640.777 1070.08 640.729 1079.01 638.444C1099.23 633.805 1105.52 622.358 1105.52 622.358C1103.05 609.107 1098.13 596.492 1091.05 585.221C1101.16 556.918 1102.36 542.371 1099.25 533.396Z" fill="#EBEBEB"/>
<path d="M1042.26 485.035C1041.12 482.307 1040.65 479.319 1040.9 476.35C1041.15 473.381 1042.12 470.528 1043.71 468.057C1050.13 457.481 1062.51 455.678 1077.17 459.811C1082.29 461.457 1086.8 464.723 1090.09 469.161C1093.37 473.6 1095.27 478.995 1095.53 484.609C1096.24 495.894 1066.23 504.221 1066.92 511.96L1042.26 485.035Z" fill="#263238"/>
<path d="M1041.62 489.33C1041.62 489.33 1037.55 496.178 1038.13 496.887C1039.14 497.544 1040.25 498.01 1041.41 498.265L1041.62 489.33Z" fill="#9A4A4D"/>
<path d="M1054.03 467.632C1049.98 469.982 1042.95 474.318 1041.53 490.323C1040.06 506.734 1043.69 512.326 1045.87 514.413C1047.34 515.831 1054.77 516.135 1058.59 514.777C1063.37 513.055 1073.72 507.342 1078.41 498.752C1083.93 488.622 1084.78 475.351 1077.98 470.388C1074.54 467.836 1070.54 466.245 1066.35 465.763C1062.16 465.281 1057.92 465.924 1054.03 467.632Z" fill="#B16668"/>
<path d="M1052.84 468.341C1052.84 468.341 1049.63 483.374 1054.19 492.653C1054.19 492.653 1056.54 486.757 1061.37 488.297C1066.19 489.837 1065.94 496.583 1062.25 500.129C1061.31 501.143 1060.12 501.856 1058.81 502.185C1057.49 502.515 1056.12 502.449 1054.84 501.993C1056.47 506.247 1058.91 510.108 1062 513.338C1062 513.338 1076.27 520.004 1088.6 505.376C1099.81 492.106 1097.73 468.908 1080.57 463.499C1063.41 458.089 1052.84 468.341 1052.84 468.341Z" fill="#263238"/>
<path d="M1093.5 469.901C1092.83 470.509 1092.41 471.373 1092.34 472.303C1092.27 473.234 1092.56 474.155 1093.13 474.865L1098.23 470.266C1097.94 469.914 1097.59 469.626 1097.2 469.417C1096.81 469.208 1096.38 469.083 1095.94 469.049C1095.5 469.016 1095.06 469.073 1094.64 469.22C1094.22 469.366 1093.83 469.597 1093.5 469.901Z" fill="#263238"/>
<path d="M1002.02 566.805C999.24 563.482 998.159 556.067 994.492 551.002C990.825 545.937 989.435 542.229 987.969 544.438C986.039 547.375 990.4 553.231 989.435 553.818C988.47 554.406 984.842 562.125 984.475 566.42C984.109 570.715 994.936 581.493 994.936 581.493L1002.02 566.805Z" fill="#B16668"/>
<path d="M989.744 553.149C989.744 553.149 976.659 551.974 974.748 553.149C972.837 554.324 973.416 560.281 974.748 563.928C976.08 567.574 982.758 570.006 988.953 574.341C988.953 573.693 989.744 553.149 989.744 553.149Z" fill="#B16668"/>
<path d="M1052.1 530.013C1046.49 532.039 1041.56 534.45 1036.32 544.803C1029.58 558.113 1017.3 584.168 1017.3 584.168L1002.02 566.805C1002.02 566.805 999.799 563.523 995.669 570.695C991.539 577.867 993.353 579.852 993.353 579.852C993.353 579.852 1011.13 604.853 1014.39 608.034C1017.65 611.215 1023.02 608.743 1026.53 603.739C1030.04 598.735 1052.1 569.743 1052.1 569.743C1052.1 569.743 1064.17 553.089 1052.1 530.013Z" fill="#B16668"/>
<path opacity="0.2" d="M1072.77 668.023L1073.85 656.09C1079.98 655.133 1085.84 652.805 1091.03 649.263C1091.03 649.263 1087.36 655.341 1077.33 658.218L1076.29 673.413L1075.67 698.332L1072.77 668.023Z" fill="black"/>
<path d="M1112.86 526.852C1110.25 526.86 1107.67 526.328 1105.26 525.287C1102.85 524.247 1100.66 522.717 1098.81 520.786C1096.97 518.856 1095.5 516.561 1094.5 514.035C1093.5 511.509 1092.98 508.801 1092.98 506.065V474.48C1095.25 473.706 1097.66 473.508 1100.02 473.901C1102.38 474.294 1104.62 475.267 1106.55 476.741C1108.48 478.215 1110.05 480.148 1111.13 482.382C1112.22 484.616 1112.78 487.087 1112.78 489.594L1112.86 526.852Z" fill="#263238"/>
<path d="M1040.41 585.16C1040.41 585.16 1051.39 570.289 1054.9 564.312L1040.02 597.296L1040.41 585.16Z" fill="#E0E0E0"/>
<path d="M944.119 463.033C948.288 475.938 957.185 514.432 957.185 514.432C957.185 514.432 974.15 538.116 978.82 542.634C981.407 545.146 987.254 549.664 987.254 549.664L982.391 553.433C982.391 553.433 974.285 550.839 973.609 555.459C965.157 548.32 957.163 540.605 949.677 532.362C947.789 530.292 946.457 527.734 945.817 524.947L938.58 492.268C938.58 492.268 938.58 465.93 934.72 462.486C930.86 459.041 932.385 451.241 932.385 451.241C935.029 451.322 940.838 452.923 944.119 463.033Z" fill="#FFA8A7"/>
<path d="M932.249 449.945C931.067 453.431 929.635 456.817 927.965 460.075C926.266 463.135 939.255 518.14 940.124 522.233C940.992 526.326 966.179 550.172 966.179 550.172C970.729 548.15 974.345 544.34 976.253 539.555L958.073 514.717C958.073 514.717 952.418 488.662 949.446 476.709C946.474 464.755 943.308 451.242 932.249 449.945Z" fill="#325F98"/>
<path opacity="0.1" d="M932.249 449.945C931.067 453.431 929.635 456.817 927.965 460.075C926.266 463.135 939.255 518.14 940.124 522.233C940.992 526.326 966.179 550.172 966.179 550.172C970.729 548.15 974.345 544.34 976.253 539.555L958.073 514.717C958.073 514.717 952.418 488.662 949.446 476.709C946.474 464.755 943.308 451.242 932.249 449.945Z" fill="black"/>
<path d="M879.059 708.442H891.604V731.012H879.059V708.442Z" fill="#FFA8A7"/>
<path d="M930.397 713.912L942.942 714.378L943.559 690.492L930.397 690.046V713.912Z" fill="#FFA8A7"/>
<path d="M880.815 547.395C880.815 559.977 879.985 633.156 879.985 633.156C879.696 636.762 876.376 643.286 876.125 656.252C875.758 675.175 878.538 719.727 878.538 719.727C880.706 720.843 883.08 721.447 885.494 721.496C887.908 721.545 890.304 721.038 892.511 720.01C892.511 720.01 902.373 657.002 904.612 638.261C906.542 621.932 913.355 578.312 913.355 578.312L923.005 633.541C921.549 640.412 921.023 647.464 921.442 654.49C922.04 663.141 929.683 706.517 929.683 706.517C931.869 707.816 934.3 708.595 936.805 708.798C939.31 709.001 941.827 708.624 944.177 707.692C944.177 707.692 944.93 639.599 945.065 631.657C945.238 622.6 941.475 544.66 941.475 544.66L880.815 547.395Z" fill="#37474F"/>
<path d="M891.604 724.508V722.624C892.279 722.624 892.684 723.313 892.955 724.994C893.133 726.25 893.378 727.495 893.688 728.722C894.241 731.029 894.971 733.285 895.869 735.469C897.645 740.068 899.131 741.77 903.203 747.139C904.582 748.626 905.871 750.203 907.063 751.859C907.816 753.277 908.086 757.208 906.793 758.12C902.064 761.442 894.865 761.523 889.77 759.963C887.874 759.404 886.17 758.287 884.86 756.743C883.55 755.199 882.689 753.293 882.378 751.251C882.185 750.036 882.262 748.78 882.127 747.564C881.679 744.783 880.6 742.157 878.981 739.906C878.042 738.606 877.234 737.207 876.569 735.732C875.527 733.038 876.357 729.978 877.032 727.284C877.611 724.954 878.248 722.401 878.962 722.624V724.042C880.75 725.528 882.974 726.315 885.254 726.271C887.165 726.352 891.623 725.967 891.604 724.508Z" fill="#263238"/>
<path d="M943.077 710.306C943.733 710.306 944.254 711.299 945.701 712.94C947.851 715.21 950.342 717.092 953.074 718.511C957.783 720.983 966.912 724.771 971.062 726.737C973.648 727.952 973.513 731.234 970.849 733.098C968.186 734.962 961.72 736.299 953.981 734.496C949.774 733.504 944.331 729.411 940.799 729.634C937.267 729.857 930.821 729.796 928.254 727.932C925.687 726.068 926.71 722.117 927.444 718.714C928.235 715.006 929.219 709.192 930.397 709.455V710.731C931.902 713.142 939.699 714.115 942.999 712.352L943.077 710.306Z" fill="#263238"/>
<path d="M913.335 578.312C919.835 576.205 925.817 572.63 930.86 567.838C930.86 567.838 927.482 574.483 917.35 580.642L922.213 629.773L913.335 578.312Z" fill="#263238"/>
<path d="M902.585 450.837C898.301 451.931 889.693 453.41 887.763 462.344C885.447 473.062 884.694 496.422 884.694 496.422L883.903 548.409C892.549 555.013 924.298 558.539 942.498 544.661C942.498 544.661 940.259 482.26 940.259 472.535C940.259 462.81 935.125 451.14 920.959 450.249L902.585 450.837Z" fill="#F5F5F5"/>
<path d="M920.727 449.276C924.631 452.709 927.457 457.299 928.834 462.445C930.571 470.306 930.764 558.093 930.764 558.093C930.764 558.093 939.642 556.37 943.791 552.947C943.791 552.947 943.27 483.657 942.421 472.19C941.128 454.827 941.263 449.904 920.67 447.979L920.727 449.276Z" fill="#325F98"/>
<path d="M898.841 447.979C898.841 447.979 910.672 455.618 910.807 486.028C910.923 512.366 911.753 558.093 911.753 558.093C911.753 558.093 892.163 561.111 879.753 553.331C879.753 553.331 878.267 489.594 878.518 479.727C878.789 468.422 881.297 453.814 884.752 452.356C889.338 450.531 894.048 449.068 898.841 447.979V447.979Z" fill="#325F98"/>
<path d="M854.837 517.795C866.61 467.267 875.315 450.411 889.577 450.613C893.765 455.84 892.607 471.684 886.007 481.287C886.007 481.287 871.281 513.865 868.946 525.454C866.881 535.584 864.545 548.449 864.68 557.201C864.729 558.748 865.312 560.225 866.321 561.354C869.004 564.414 869.023 566.885 870.76 570.269C872.13 572.903 873.616 573.895 873.192 574.503C872.629 575.13 871.864 575.513 871.045 575.577C870.227 575.641 869.416 575.38 868.772 574.847C867.516 573.886 866.392 572.748 865.433 571.464C865.895 574.705 866.785 577.862 868.077 580.844C871.107 587.996 870.374 591.643 861.168 589.09C855.378 587.49 851.788 582.465 850.939 567.919C850.514 562.567 850.463 557.191 850.784 551.832C852.039 538.055 852.927 525.94 854.837 517.795Z" fill="#FFA8A7"/>
<path d="M892.067 449.783C892.067 449.783 882.591 449.338 877.457 454.787C872.323 460.237 865.394 471.705 858.678 496.766C851.961 521.828 849.896 540.143 849.568 554.244C849.568 554.244 857.983 558.296 865.742 553.677C865.742 553.677 869.177 531.856 872.226 520.248C875.276 508.639 886.644 484.185 886.644 484.185C886.644 484.185 897.509 467.227 892.067 449.783Z" fill="#325F98"/>
<path opacity="0.1" d="M892.067 449.783C892.067 449.783 882.591 449.338 877.457 454.787C872.323 460.237 865.394 471.705 858.678 496.766C851.961 521.828 849.896 540.143 849.568 554.244C849.568 554.244 857.983 558.296 865.742 553.677C865.742 553.677 869.177 531.856 872.226 520.248C875.276 508.639 886.644 484.185 886.644 484.185C886.644 484.185 897.509 467.227 892.067 449.783Z" fill="black"/>
<path opacity="0.1" d="M897.51 464.613L902.933 471.644L900.212 479.666L907.333 498.832L898.764 479.666L901.756 472.089L897.51 464.613Z" fill="black"/>
<path opacity="0.1" d="M935.723 462.344L934.546 469.617L939.236 476.04L932.713 497.596L937.769 476.283L933.446 470.286L935.723 462.344Z" fill="black"/>
<path d="M905.846 410.455C904.319 400.581 910.707 391.277 920.113 389.675C929.519 388.072 938.382 394.777 939.909 404.651C941.435 414.525 935.048 423.829 925.642 425.431C916.236 427.034 907.373 420.329 905.846 410.455Z" fill="#263238"/>
<path d="M893.071 420.406C893.071 420.406 895.869 434.203 896.931 436.472C897.681 437.863 898.91 438.9 900.366 439.37L900.173 429.665L893.071 420.406Z" fill="#263238"/>
<path d="M896.583 400.652C895.601 400.537 894.606 400.66 893.676 401.011C892.746 401.362 891.905 401.933 891.218 402.678C888.921 405.15 890.195 412.808 893.148 420.446L898.417 421.074L896.583 400.652Z" fill="#263238"/>
<path d="M899.98 421.054C898.918 421.702 897.413 419.575 896.12 418.157C895.611 417.528 894.957 417.048 894.22 416.763C893.483 416.477 892.688 416.395 891.912 416.526C891.137 416.656 890.406 416.994 889.791 417.507C889.176 418.019 888.697 418.69 888.4 419.453C886.238 424.235 890.33 430.556 893.611 431.609C899.401 433.514 900.25 429.583 900.25 429.583L900.675 452.092C904.67 457.461 913.625 463.782 918.45 462.871C922.31 462.161 923.14 455.334 919.454 450.856V444.252C922.005 444.678 924.594 444.814 927.174 444.657C931.42 443.968 934.083 440.463 935.376 435.641C937.441 427.902 938.232 421.662 936.476 406.426C934.546 389.732 916.057 389.57 906.079 396.154C896.101 402.739 899.98 421.054 899.98 421.054Z" fill="#FFA8A7"/>
<path d="M899.98 422.918C899.44 422.918 897.413 419.413 896.12 418.157C894.306 416.414 896.66 400.652 896.66 400.652C896.03 399.266 895.813 397.712 896.036 396.194C896.26 394.676 896.915 393.264 897.915 392.143C900.405 389.266 903.879 385.741 915.285 387.159C923.352 388.152 932.134 390.786 939.236 387.159C939.893 389.589 939.843 392.17 939.093 394.57C938.344 396.971 936.928 399.081 935.029 400.632C932.12 402.148 928.949 403.03 925.707 403.225C919.469 403.72 913.201 403.598 906.986 402.861C905.056 402.577 904.612 404.562 903.55 410.012C902.47 414.773 901.698 422.877 899.98 422.918Z" fill="#263238"/>
<path d="M896.583 401.888L890.195 398.282C890.4 397.83 890.69 397.426 891.047 397.095C891.405 396.764 891.822 396.513 892.275 396.355C892.728 396.198 893.206 396.139 893.681 396.181C894.156 396.223 894.618 396.366 895.039 396.6C895.887 397.112 896.518 397.943 896.804 398.925C897.091 399.906 897.012 400.965 896.583 401.888Z" fill="#263238"/>
<path d="M919.415 444.252C915.054 443.379 910.777 442.09 906.638 440.403C904.691 439.336 903.097 437.677 902.064 435.642C902.562 437.678 903.449 439.587 904.67 441.254C907.082 444.495 919.415 446.886 919.415 446.886V444.252Z" fill="#F28F8F"/>
<path d="M917.138 418.562C917.138 419.099 916.934 419.615 916.572 419.995C916.21 420.375 915.72 420.588 915.208 420.588C914.696 420.588 914.205 420.375 913.843 419.995C913.481 419.615 913.278 419.099 913.278 418.562C913.278 418.025 913.481 417.509 913.843 417.13C914.205 416.75 914.696 416.536 915.208 416.536C915.72 416.536 916.21 416.75 916.572 417.13C916.934 417.509 917.138 418.025 917.138 418.562Z" fill="#263238"/>
<path d="M915.13 411.046L911.077 413.396C910.789 412.81 910.727 412.129 910.903 411.496C911.079 410.863 911.48 410.324 912.023 409.992C912.291 409.84 912.587 409.746 912.891 409.717C913.194 409.688 913.501 409.723 913.791 409.822C914.082 409.92 914.35 410.079 914.58 410.29C914.81 410.5 914.998 410.758 915.13 411.046V411.046Z" fill="#263238"/>
<path d="M918.566 432.318L922.889 434.02C922.798 434.327 922.648 434.611 922.45 434.855C922.251 435.099 922.007 435.298 921.732 435.44C921.458 435.582 921.159 435.664 920.854 435.681C920.548 435.699 920.243 435.65 919.955 435.54C919.372 435.295 918.902 434.823 918.643 434.223C918.384 433.622 918.356 432.94 918.566 432.318V432.318Z" fill="#F28F8F"/>
<path d="M934.064 412.707L930.358 409.708C930.532 409.446 930.756 409.223 931.014 409.054C931.273 408.884 931.561 408.772 931.862 408.723C932.164 408.673 932.471 408.689 932.767 408.767C933.062 408.846 933.339 408.987 933.581 409.182C934.075 409.593 934.4 410.188 934.49 410.843C934.58 411.499 934.427 412.166 934.064 412.707V412.707Z" fill="#263238"/>
<path d="M932.925 417.914C932.925 418.451 932.722 418.966 932.36 419.346C931.998 419.726 931.507 419.94 930.995 419.94C930.483 419.94 929.992 419.726 929.63 419.346C929.268 418.966 929.065 418.451 929.065 417.914C929.065 417.376 929.268 416.861 929.63 416.481C929.992 416.101 930.483 415.888 930.995 415.888C931.507 415.888 931.998 416.101 932.36 416.481C932.722 416.861 932.925 417.376 932.925 417.914Z" fill="#263238"/>
<path d="M923.256 416.11L923.873 428.084L929.837 425.957L923.256 416.11Z" fill="#F28F8F"/>
<path d="M925.321 461.574C924.163 464.492 922.001 465.626 918.122 466.133C916.159 466.26 914.192 465.966 912.34 465.269C910.489 464.573 908.792 463.488 907.353 462.081L912.178 457.036L918.334 461.878L918.855 456.469L925.321 461.574Z" fill="#325F98"/>
<path opacity="0.1" d="M925.321 461.574C924.163 464.492 922.001 465.626 918.122 466.133C916.159 466.26 914.192 465.966 912.34 465.269C910.489 464.573 908.792 463.488 907.353 462.081L912.178 457.036L918.334 461.878L918.855 456.469L925.321 461.574Z" fill="black"/>
<path d="M922.271 459.994C922.841 461.745 923.058 463.601 922.908 465.444C922.724 467.086 922.124 468.646 921.171 469.962C920.56 470.376 919.865 470.635 919.141 470.719C918.418 470.804 917.686 470.711 917.003 470.448C915.753 469.322 914.75 467.927 914.061 466.357C913.371 464.787 913.012 463.08 913.008 461.352L918.334 461.98L922.271 459.994Z" fill="#325F98"/>
<path d="M921.21 469.962C921.21 469.962 927.521 506.43 927.772 509.428C928.023 512.427 924.163 522.841 921.75 522.922C919.338 523.003 914.629 513.541 914.571 510.766C914.513 507.99 917.041 470.347 917.041 470.347L921.21 469.962Z" fill="#325F98"/>
<path opacity="0.1" d="M917.003 470.448C917.676 470.761 918.417 470.881 919.149 470.795C919.882 470.71 920.579 470.422 921.171 469.962V470.549C920.569 471.054 919.86 471.398 919.104 471.554C918.348 471.709 917.568 471.67 916.829 471.441L917.003 470.448Z" fill="black"/>
<path d="M918.334 461.979L900.578 447.797V443.583C900.578 443.583 896.448 445.224 895.522 452.862C898.37 459.486 903.239 464.925 909.36 468.32L913.085 461.351L918.334 461.979Z" fill="#E0E0E0"/>
<path d="M919.415 445.508C921.736 445.893 923.817 447.226 925.205 449.215C926.98 452.275 926.575 464.046 926.575 464.046L922.329 459.994L918.469 462.02C918.836 458.11 919.569 450.978 919.569 450.978L919.415 445.508Z" fill="#E0E0E0"/>
<path d="M988.76 574.463C987.102 572.018 986.132 569.133 985.961 566.136C985.459 562.307 975.462 558.194 975.134 561.051C974.806 563.908 973.899 566.278 977.064 569.743C980.229 573.207 984.108 577.036 988.76 574.463Z" fill="#FFA8A7"/>
<path d="M988.239 549.725C990.632 552.967 992.099 559.268 993.373 561.395C994.646 563.522 996.152 565.447 993.373 565.751C990.593 566.055 986.56 560.463 985.054 557.019C984.471 555.657 983.584 554.462 982.468 553.534C982.029 553.165 981.542 552.865 981.02 552.643C982.314 552.177 981.638 546.707 982.545 545.957C982.545 545.957 987.254 547.983 988.239 549.725Z" fill="#FFA8A7"/>
<g opacity="0.05">
<path d="M670.4 672.2H338.1V763.7H657.5L670.4 672.2Z" fill="url(#paint1_linear_301_151)"/>
<path d="M338.1 496.7V763.7L429.7 710.8V443.8L338.1 496.7Z" fill="#E1E6F0"/>
<path d="M338.1 496.7V763.7L246.5 710.8V443.8L338.1 496.7Z" fill="url(#paint2_linear_301_151)"/>
<path d="M246.5 443.8L338.1 496.7L429.7 443.8L338.1 391L246.5 443.8Z" fill="url(#paint3_linear_301_151)"/>
<path d="M99.4 524.5V710L157.7 676.3V490.9L99.4 524.5Z" fill="#E1E6F0"/>
<path d="M99.4 524.5V710L41.1 676.3V490.9L99.4 524.5Z" fill="url(#paint4_linear_301_151)"/>
<path d="M41.1 490.9L99.4 524.5L157.7 490.9L99.4 457.2L41.1 490.9Z" fill="url(#paint5_linear_301_151)"/>
<path d="M423.5 796.2H82.2999V915.2H423.5V796.2Z" fill="url(#paint6_linear_301_151)"/>
<path d="M82.2999 690.701V915.201L173.9 862.301V637.801L82.2999 690.701Z" fill="url(#paint7_linear_301_151)"/>
<path d="M-9.30005 637.801L82.3 690.701L173.9 637.801L82.3 690.701L-9.30005 637.801Z" fill="white"/>
<path d="M82.3 690.701V915.201L-9.30005 862.301V637.801L82.3 690.701Z" fill="url(#paint8_linear_301_151)"/>
<path d="M-9.30005 637.8L82.3 690.7L173.9 637.8L82.3 584.9L-9.30005 637.8Z" fill="url(#paint9_linear_301_151)"/>
<path d="M671.3 488.3H519.8V569.1H671.3V488.3Z" fill="url(#paint10_linear_301_151)"/>
<path d="M519.8 554.2V569.1L578.2 535.4V520.5L519.8 554.2Z" fill="url(#paint11_linear_301_151)"/>
<path d="M461.3 520.5L519.8 554.2L578.2 520.5L519.8 554.2L461.3 520.5Z" fill="white"/>
<path d="M519.8 554.2V569.1L461.3 535.4V520.5L519.8 554.2Z" fill="url(#paint12_linear_301_151)"/>
<path d="M461.3 520.5L519.8 554.2L578.2 520.5L519.8 486.7L461.3 520.5Z" fill="url(#paint13_linear_301_151)"/>
<path d="M519.8 535.399V550.299L578.2 516.599V501.699L519.8 535.399Z" fill="url(#paint14_linear_301_151)"/>
<path d="M461.3 501.699L519.8 535.399L578.2 501.699L519.8 535.399L461.3 501.699Z" fill="white"/>
<path d="M519.8 535.399V550.299L461.3 516.599V501.699L519.8 535.399Z" fill="url(#paint15_linear_301_151)"/>
<path d="M461.3 501.699L519.8 535.399L578.2 501.699L519.8 467.899L461.3 501.699Z" fill="url(#paint16_linear_301_151)"/>
<path d="M519.8 516.6V531.5L578.2 497.7V482.8L519.8 516.6Z" fill="url(#paint17_linear_301_151)"/>
<path d="M461.3 482.8L519.8 516.6L578.2 482.8L519.8 516.6L461.3 482.8Z" fill="white"/>
<path d="M519.8 516.6V531.5L461.3 497.7V482.8L519.8 516.6Z" fill="url(#paint18_linear_301_151)"/>
<path d="M548 500.2L578.2 482.8L519.8 449.1L461.3 482.8L519.8 516.6L548 500.2Z" fill="url(#paint19_linear_301_151)"/>
<path d="M519.8 497.7V512.6L578.2 478.9V464L519.8 497.7Z" fill="url(#paint20_linear_301_151)"/>
<path d="M461.3 464L519.8 497.7L578.2 464L519.8 497.7L461.3 464Z" fill="white"/>
<path d="M519.8 497.7V512.6L461.3 478.9V464L519.8 497.7Z" fill="url(#paint21_linear_301_151)"/>
<path d="M461.3 464L519.8 497.7L578.2 464L519.8 430.3L461.3 464Z" fill="url(#paint22_linear_301_151)"/>
<path d="M635 643V1068.1L733.5 1011.3V586.1L635 643Z" fill="url(#paint23_linear_301_151)"/>
<path d="M536.5 586.1L635 643L733.5 586.1L635 643L536.5 586.1Z" fill="white"/>
<path d="M635 643V1068.1L536.5 1011.3V586.1L635 643Z" fill="url(#paint24_linear_301_151)"/>
<path d="M536.5 586.1L635 643L733.5 586.1L635 529.3L536.5 586.1Z" fill="url(#paint25_linear_301_151)"/>
</g>
<path opacity="0.1" fill-rule="evenodd" clip-rule="evenodd" d="M1659.8 178.3C1668.9 212.4 1648.7 247.5 1614.5 256.7C1580.4 265.8 1545.3 245.6 1536.1 211.4C1527 177.3 1547.2 142.2 1581.4 133C1615.6 123.9 1650.7 144.2 1659.8 178.3Z" fill="#FCFAFA"/>
<path opacity="0.1" fill-rule="evenodd" clip-rule="evenodd" d="M1499 838.5C1521.4 838.5 1539.5 856.6 1539.5 879C1539.5 901.4 1521.4 919.5 1499 919.5C1476.6 919.5 1458.5 901.4 1458.5 879C1458.5 856.6 1476.6 838.5 1499 838.5Z" fill="#FCFAFA"/>
<path opacity="0.1" fill-rule="evenodd" clip-rule="evenodd" d="M981 1164.5C1003.4 1164.5 1021.5 1182.6 1021.5 1205C1021.5 1227.4 1003.4 1245.5 981 1245.5C958.6 1245.5 940.5 1227.4 940.5 1205C940.5 1182.6 958.6 1164.5 981 1164.5Z" fill="#FCFAFA"/>
<path opacity="0.1" fill-rule="evenodd" clip-rule="evenodd" d="M1604 225.5C1626.4 225.5 1644.5 243.6 1644.5 266C1644.5 288.4 1626.4 306.5 1604 306.5C1581.6 306.5 1563.5 288.4 1563.5 266C1563.5 243.6 1581.6 225.5 1604 225.5Z" fill="#FCFAFA"/>
<path opacity="0.1" fill-rule="evenodd" clip-rule="evenodd" d="M781 232.7C788.4 232.7 794.3 238.7 794.3 246C794.3 253.4 788.3 259.3 781 259.3C773.6 259.3 767.7 253.3 767.7 246C767.7 238.6 773.6 232.7 781 232.7Z" fill="#FCFAFA"/>
<path opacity="0.1" fill-rule="evenodd" clip-rule="evenodd" d="M726.7 -45.9004C752.2 -45.9004 772.9 -25.2004 772.9 0.29961C772.9 25.7996 752.2 46.4996 726.7 46.4996C701.2 46.4996 680.5 25.7996 680.5 0.29961C680.5 -25.2004 701.2 -45.9004 726.7 -45.9004Z" fill="#FCFAFA"/>
</g>
<defs>
<filter id="filter0_d_301_151" x="0" y="0" width="1608" height="1355.9" filterUnits="userSpaceOnUse" color-interpolation-filters="sRGB">
<feFlood flood-opacity="0" result="BackgroundImageFix"/>
<feColorMatrix in="SourceAlpha" type="matrix" values="0 0 0 0 0 0 0 0 0 0 0 0 0 0 0 0 0 0 127 0" result="hardAlpha"/>
<feOffset dy="4"/>
<feGaussianBlur stdDeviation="2"/>
<feComposite in2="hardAlpha" operator="out"/>
<feColorMatrix type="matrix" values="0 0 0 0 0 0 0 0 0 0 0 0 0 0 0 0 0 0 0.25 0"/>
<feBlend mode="normal" in2="BackgroundImageFix" result="effect1_dropShadow_301_151"/>
<feBlend mode="normal" in="SourceGraphic" in2="effect1_dropShadow_301_151" result="shape"/>
</filter>
<linearGradient id="paint0_linear_301_151" x1="245.71" y1="2.18251" x2="1433.23" y2="1431.02" gradientUnits="userSpaceOnUse">
<stop stop-color="#325F98"/>
<stop offset="1" stop-color="#3BABBC"/>
</linearGradient>
<linearGradient id="paint1_linear_301_151" x1="174.904" y1="717.975" x2="638.278" y2="717.975" gradientUnits="userSpaceOnUse">
<stop offset="2.51e-06" stop-color="#788ACB"/>
<stop offset="1" stop-color="white"/>
</linearGradient>
<linearGradient id="paint2_linear_301_151" x1="322.846" y1="474.147" x2="271.131" y2="693.456" gradientUnits="userSpaceOnUse">
<stop offset="6.3e-07" stop-color="white"/>
<stop offset="1" stop-color="#E1E6F0"/>
</linearGradient>
<linearGradient id="paint3_linear_301_151" x1="342.446" y1="350.97" x2="336.044" y2="486.998" gradientUnits="userSpaceOnUse">
<stop offset="6.3e-07" stop-color="white"/>
<stop offset="1" stop-color="#E1E6F0"/>
</linearGradient>
<linearGradient id="paint4_linear_301_151" x1="91.3253" y1="511.171" x2="55.7205" y2="662.162" gradientUnits="userSpaceOnUse">
<stop offset="6.3e-07" stop-color="white"/>
<stop offset="1" stop-color="#E1E6F0"/>
</linearGradient>
<linearGradient id="paint5_linear_301_151" x1="102.187" y1="431.806" x2="98.1158" y2="518.321" gradientUnits="userSpaceOnUse">
<stop offset="6.3e-07" stop-color="white"/>
<stop offset="1" stop-color="#E1E6F0"/>
</linearGradient>
<linearGradient id="paint6_linear_301_151" x1="-62.0456" y1="855.704" x2="338.693" y2="855.704" gradientUnits="userSpaceOnUse">
<stop offset="2.3e-06" stop-color="#788ACB"/>
<stop offset="1" stop-color="white"/>
</linearGradient>
<linearGradient id="paint7_linear_301_151" x1="32.3086" y1="492.646" x2="179.926" y2="930.273" gradientUnits="userSpaceOnUse">
<stop offset="8.4e-07" stop-color="#788ACB"/>
<stop offset="1" stop-color="#DEE8FF"/>
</linearGradient>
<linearGradient id="paint8_linear_301_151" x1="62.6682" y1="665.314" x2="18.3198" y2="853.384" gradientUnits="userSpaceOnUse">
<stop offset="6.3e-07" stop-color="white"/>
<stop offset="1" stop-color="#E1E6F0"/>
</linearGradient>
<linearGradient id="paint9_linear_301_151" x1="86.623" y1="544.914" x2="80.2216" y2="680.942" gradientUnits="userSpaceOnUse">
<stop offset="6.3e-07" stop-color="white"/>
<stop offset="1" stop-color="#E1E6F0"/>
</linearGradient>
<linearGradient id="paint10_linear_301_151" x1="493.635" y1="528.717" x2="666.076" y2="528.717" gradientUnits="userSpaceOnUse">
<stop offset="2.3e-06" stop-color="#788ACB"/>
<stop offset="0.2139" stop-color="#A2AEDB"/>
<stop offset="0.4536" stop-color="#CAD1EB"/>
<stop offset="0.6727" stop-color="#E7EAF6"/>
<stop offset="0.8621" stop-color="#F9FAFD"/>
<stop offset="1" stop-color="white"/>
</linearGradient>
<linearGradient id="paint11_linear_301_151" x1="501.916" y1="517.877" x2="574.181" y2="559.22" gradientUnits="userSpaceOnUse">
<stop offset="8.4e-07" stop-color="#788ACB"/>
<stop offset="1" stop-color="#DEE8FF"/>
</linearGradient>
<linearGradient id="paint12_linear_301_151" x1="494.112" y1="529.648" x2="488.069" y2="555.277" gradientUnits="userSpaceOnUse">
<stop offset="6.3e-07" stop-color="white"/>
<stop offset="1" stop-color="#E1E6F0"/>
</linearGradient>
<linearGradient id="paint13_linear_301_151" x1="532.734" y1="520.48" x2="465.734" y2="520.48" gradientUnits="userSpaceOnUse">
<stop offset="8.4e-07" stop-color="#788ACB"/>
<stop offset="1" stop-color="#DEE8FF"/>
</linearGradient>
<linearGradient id="paint14_linear_301_151" x1="510.03" y1="503.692" x2="582.296" y2="545.035" gradientUnits="userSpaceOnUse">
<stop offset="8.4e-07" stop-color="#788ACB"/>
<stop offset="1" stop-color="#DEE8FF"/>
</linearGradient>
<linearGradient id="paint15_linear_301_151" x1="494.112" y1="510.821" x2="488.069" y2="536.45" gradientUnits="userSpaceOnUse">
<stop offset="6.3e-07" stop-color="white"/>
<stop offset="1" stop-color="#E1E6F0"/>
</linearGradient>
<linearGradient id="paint16_linear_301_151" x1="532.734" y1="501.653" x2="465.734" y2="501.653" gradientUnits="userSpaceOnUse">
<stop offset="8.4e-07" stop-color="#788ACB"/>
<stop offset="1" stop-color="#DEE8FF"/>
</linearGradient>
<linearGradient id="paint17_linear_301_151" x1="518.145" y1="489.508" x2="590.411" y2="530.851" gradientUnits="userSpaceOnUse">
<stop offset="8.4e-07" stop-color="#788ACB"/>
<stop offset="1" stop-color="#DEE8FF"/>
</linearGradient>
<linearGradient id="paint18_linear_301_151" x1="494.112" y1="491.995" x2="488.069" y2="517.624" gradientUnits="userSpaceOnUse">
<stop offset="6.3e-07" stop-color="white"/>
<stop offset="1" stop-color="#E1E6F0"/>
</linearGradient>
<linearGradient id="paint19_linear_301_151" x1="532.734" y1="482.826" x2="465.734" y2="482.826" gradientUnits="userSpaceOnUse">
<stop offset="8.4e-07" stop-color="#788ACB"/>
<stop offset="1" stop-color="#DEE8FF"/>
</linearGradient>
<linearGradient id="paint20_linear_301_151" x1="526.26" y1="475.324" x2="598.526" y2="516.666" gradientUnits="userSpaceOnUse">
<stop offset="8.4e-07" stop-color="#788ACB"/>
<stop offset="1" stop-color="#DEE8FF"/>
</linearGradient>
<linearGradient id="paint21_linear_301_151" x1="494.112" y1="473.168" x2="488.069" y2="498.797" gradientUnits="userSpaceOnUse">
<stop offset="6.3e-07" stop-color="white"/>
<stop offset="1" stop-color="#E1E6F0"/>
</linearGradient>
<linearGradient id="paint22_linear_301_151" x1="576.755" y1="464" x2="461.356" y2="464" gradientUnits="userSpaceOnUse">
<stop offset="6.3e-07" stop-color="white"/>
<stop offset="1" stop-color="#E1E6F0"/>
</linearGradient>
<linearGradient id="paint23_linear_301_151" x1="509.949" y1="310.334" x2="778.72" y2="1107.13" gradientUnits="userSpaceOnUse">
<stop offset="8.4e-07" stop-color="#788ACB"/>
<stop offset="1" stop-color="#DEE8FF"/>
</linearGradient>
<linearGradient id="paint24_linear_301_151" x1="632.806" y1="627.727" x2="553.262" y2="965.054" gradientUnits="userSpaceOnUse">
<stop offset="6.3e-07" stop-color="white"/>
<stop offset="1" stop-color="#E1E6F0"/>
</linearGradient>
<linearGradient id="paint25_linear_301_151" x1="639.727" y1="486.262" x2="632.845" y2="632.517" gradientUnits="userSpaceOnUse">
<stop offset="6.3e-07" stop-color="white"/>
<stop offset="1" stop-color="#E1E6F0"/>
</linearGradient>
<clipPath id="clip0_301_151">
<rect width="1600" height="1347.9" fill="white" transform="translate(4)"/>
</clipPath>
</defs>
</svg>
